# xmcd
#
# Track frame offsets:
#	150
#	26850
#	45487
#	63197
#	81475
#	106557
#	129072
#	151480
#	172315
#	189098
#
# Disc length: 2811 seconds
#
# Revision: 0
# Processed by: cddbd v1.5.2PL0 Copyright (c) Steve Scherf et al.
# Submitted via: EasyCDDAExtractor 16.0.9.1
#
DISCID=760af90a
DTITLE=Khánh Hà - KH07: Nhạc Tình Muôn Thuở
DYEAR=1990
DGENRE=Pop
TTITLE0=Đợi Anh Về (Unchained Melody)
TTITLE1=Nỗi Buồn Chợt Đến (All At Once)
TTITLE2=Chuyện Tình Romeo and Julliete (Time For Us)
TTITLE3=Nơi Đây Vẫn Chờ (Right Here Waiting)
TTITLE4=Ngàn Năm Vẫn Đợi
TTITLE5=Trái Tim Còn Trinh
TTITLE6=Nhưng Tim Thì Vẫn Trong Ta (My Heart Belong To Me)
TTITLE7=Cuộc Tình Thế Thôi (Tout Se Plaire)
TTITLE8=Đi Tìm Tình Yêu (Women In Love)
TTITLE9=Sa Mạc Tình Yêu
EXTD=
EXTT0=
EXTT1=
EXTT2=
EXTT3=
EXTT4=
EXTT5=
EXTT6=
EXTT7=
EXTT8=
EXTT9=
PLAYORDER=
